<?xml version="1.0" encoding="UTF-8"?>
<svg id="Calque_1" xmlns="http://www.w3.org/2000/svg" version="1.1" viewBox="0 0 283.46 132.81">
  <!-- Generator: Adobe Illustrator 29.4.0, SVG Export Plug-In . SVG Version: 2.1.0 Build 152)  -->
  <defs>
    <style>
      .st0 {
        font-family: Florentia-Light, Florentia;
        font-size: 46.07px;
      }

      .st0, .st1 {
        font-weight: 300;
      }

      .st0, .st2 {
        fill: #794082;
      }

      .st3, .st1 {
        fill: #575756;
      }

      .st1 {
        font-family: FuturaStd-Light, 'Futura Std';
        font-size: 23px;
        letter-spacing: .03em;
      }
    </style>
  </defs>
  <text class="st0" transform="translate(66.87 91.38)"><tspan x="0" y="0">ANTAREL</tspan></text>
  <path class="st3" d="M67.69,111.68l5.17-1.38c1.73-.44,3.47-.83,5.2-1.25,1.73-.42,3.48-.79,5.22-1.17,1.74-.38,3.49-.77,5.24-1.07,7.01-1.34,14.07-2.47,21.15-3.4,14.17-1.82,28.45-2.82,42.75-2.96,14.31-.16,28.59.8,42.78,2.19,7.1.72,14.19,1.48,21.25,2.52,3.53.52,7.06,1.05,10.57,1.65,3.51.6,7.03,1.2,10.49,2.09-3.5-.69-7.04-1.07-10.57-1.54-3.53-.44-7.07-.82-10.61-1.19-7.09-.68-14.17-1.37-21.27-1.86-7.1-.52-14.2-.87-21.31-1.17-7.1-.26-14.2-.31-21.3-.24-14.2.25-28.4,1.07-42.54,2.56-7.08.68-14.14,1.55-21.17,2.64-3.52.52-7.04,1.06-10.55,1.66-3.51.6-7.01,1.27-10.51,1.92Z"/>
  <path class="st2" d="M45.9,92.39c-9.32,1.12-19.41-7.21-19.79-7.54-.58-.5-1.44.73-1.14,1.01s8.45,8.61,17.62,9.59c5.32.57,10.69-.89,14.08-3.17s6.94-5.05,7.68-12.95-2.72-12.28-10.68-16.09c-3.89-1.86-8.22-2.72-13.28-4.43-4.9-1.63-9.07-4.59-9.09-9.88s3.65-9.03,10.99-9.65,12.51,1.62,16.37,8.17c.35.59.78.32,1.08.16s.79-.26.5-.94c-2.44-5.71-9.69-10.35-18.11-9.57s-15.29,5.6-15.73,15.17,9.41,13.38,13.36,14.78c7.51,2.64,19.41,4.8,19.15,13.03-.18,5.54-3.68,11.18-13,12.3Z"/>
  <text class="st1" transform="translate(94.81 47.42)"><tspan x="0" y="0">Laboratoire</tspan></text>
</svg>